<svg xmlns="http://www.w3.org/2000/svg" viewBox="0 0 200 200" width="200" height="200">
  <defs>
    <radialGradient id="bg" cx="0.5" cy="0.35" r="0.75"><stop offset="0" stop-color="#5aa6ff"/><stop offset="1" stop-color="#245f9e"/></radialGradient>
    <radialGradient id="skin" cx="0.44" cy="0.4" r="0.7"><stop offset="0" stop-color="#e6b489"/><stop offset="0.7" stop-color="#d29a68"/><stop offset="1" stop-color="#b47c4c"/></radialGradient>
    <linearGradient id="hair" x1="0" y1="0" x2="0" y2="1"><stop offset="0" stop-color="#3a2716"/><stop offset="1" stop-color="#1c120a"/></linearGradient>
    <linearGradient id="top" x1="0" y1="0" x2="0" y2="1"><stop offset="0" stop-color="#2c4a68"/><stop offset="1" stop-color="#182f45"/></linearGradient>
    <radialGradient id="iris" cx="0.5" cy="0.5" r="0.5"><stop offset="0" stop-color="#5a3d22"/><stop offset="1" stop-color="#2a1a0e"/></radialGradient>
    <clipPath id="c"><rect width="200" height="200"/></clipPath>
  </defs>
  <g clip-path="url(#c)">
    <rect width="200" height="200" fill="url(#bg)"/>
    <path d="M36 200 C36 156 66 138 100 138 C134 138 164 156 164 200 Z" fill="url(#top)"/>
    <path d="M100 140 c-14 0 -20 -4 -20 -4 l0 -18 h40 l0 18 s-6 4 -20 4 Z" fill="#c48b5c"/>
    <ellipse cx="58" cy="94" rx="7" ry="12" fill="url(#skin)"/><ellipse cx="142" cy="94" rx="7" ry="12" fill="url(#skin)"/>
    <ellipse cx="100" cy="90" rx="42" ry="49" fill="url(#skin)"/>
    <path d="M100 120 C118 120 130 112 132 108 C132 132 118 146 100 146 C82 146 68 132 68 108 C70 112 82 120 100 120 Z" fill="url(#hair)"/>
    <rect x="66" y="112" width="68" height="10" rx="5" fill="#2a1a0e"/>
    <path d="M60 78 C58 38 142 38 140 78 C142 54 126 40 100 40 C74 40 58 54 60 78 Z" fill="url(#hair)"/>
    <path d="M70 82 q10 -6 21 -1" stroke="#241608" stroke-width="3.4" fill="none" stroke-linecap="round"/>
    <path d="M109 81 q11 -5 21 1" stroke="#241608" stroke-width="3.4" fill="none" stroke-linecap="round"/>
    <g>
      <ellipse cx="81" cy="94" rx="9" ry="6.2" fill="#fff"/><ellipse cx="119" cy="94" rx="9" ry="6.2" fill="#fff"/>
      <circle cx="82" cy="95" r="4.5" fill="url(#iris)"/><circle cx="118" cy="95" r="4.5" fill="url(#iris)"/>
      <circle cx="82" cy="95" r="2" fill="#140b06"/><circle cx="118" cy="95" r="2" fill="#140b06"/>
      <circle cx="83.6" cy="93" r="1.3" fill="#fff"/><circle cx="119.6" cy="93" r="1.3" fill="#fff"/>
      <path d="M72 90 q9 -5 18 0" stroke="#3a2716" stroke-width="1.5" fill="none" stroke-linecap="round"/>
      <path d="M110 90 q9 -5 18 0" stroke="#3a2716" stroke-width="1.5" fill="none" stroke-linecap="round"/>
    </g>
    <path d="M100 98 q-6 12 -3 16 q3 3 6 0" fill="none" stroke="#b47c4c" stroke-width="2.6" stroke-linecap="round"/>
    <ellipse cx="95" cy="116" rx="1.5" ry="1" fill="#9a6538"/><ellipse cx="105" cy="116" rx="1.5" ry="1" fill="#9a6538"/>
    <path d="M84 126 q16 6 32 0" stroke="#7a4a2a" stroke-width="2.6" fill="none" stroke-linecap="round"/>
  </g>
</svg>
