<svg xmlns="http://www.w3.org/2000/svg" viewBox="0 0 200 200" width="200" height="200">
  <defs>
    <radialGradient id="bg" cx="0.5" cy="0.35" r="0.75"><stop offset="0" stop-color="#f9b8cf"/><stop offset="1" stop-color="#b23e6a"/></radialGradient>
    <radialGradient id="skin" cx="0.44" cy="0.4" r="0.7"><stop offset="0" stop-color="#f6d3b0"/><stop offset="0.7" stop-color="#e7b48a"/><stop offset="1" stop-color="#cf9468"/></radialGradient>
    <linearGradient id="hair" x1="0" y1="0" x2="0" y2="1"><stop offset="0" stop-color="#6e4a2a"/><stop offset="1" stop-color="#3f2814"/></linearGradient>
    <linearGradient id="top" x1="0" y1="0" x2="0" y2="1"><stop offset="0" stop-color="#e84393"/><stop offset="1" stop-color="#a02765"/></linearGradient>
    <radialGradient id="iris" cx="0.5" cy="0.5" r="0.5"><stop offset="0" stop-color="#7a4f2c"/><stop offset="1" stop-color="#3a2413"/></radialGradient>
    <clipPath id="c"><rect width="200" height="200"/></clipPath>
  </defs>
  <g clip-path="url(#c)">
    <rect width="200" height="200" fill="url(#bg)"/>
    <path d="M40 200 C40 158 66 142 100 142 C134 142 160 158 160 200 Z" fill="url(#top)"/>
    <path d="M100 142 c-14 0 -20 -3 -20 -3 l0 -20 h40 l0 20 s-6 3 -20 3 Z" fill="#dfa374"/>
    <path d="M84 120 q16 12 32 0 l0 8 q-16 12 -32 0 Z" fill="#c98f63" opacity="0.5"/>
    <path d="M52 96 C44 44 72 26 100 26 C128 26 156 44 148 96 C152 70 150 150 132 168 L132 84 C132 58 118 46 100 46 C82 46 68 58 68 84 L68 168 C50 150 48 70 52 96 Z" fill="url(#hair)"/>
    <ellipse cx="58" cy="96" rx="7" ry="12" fill="url(#skin)"/><ellipse cx="142" cy="96" rx="7" ry="12" fill="url(#skin)"/>
    <ellipse cx="100" cy="92" rx="42" ry="50" fill="url(#skin)"/>
    <path d="M64 82 C62 50 138 50 136 82 C130 60 118 52 100 52 C82 52 70 60 64 82 Z" fill="url(#hair)"/>
    <ellipse cx="80" cy="112" rx="9" ry="6" fill="#f4a9c0" opacity="0.45"/><ellipse cx="120" cy="112" rx="9" ry="6" fill="#f4a9c0" opacity="0.45"/>
    <path d="M70 84 q10 -7 21 -1" stroke="#4a2f18" stroke-width="3" fill="none" stroke-linecap="round"/>
    <path d="M109 83 q11 -6 21 1" stroke="#4a2f18" stroke-width="3" fill="none" stroke-linecap="round"/>
    <g>
      <ellipse cx="81" cy="96" rx="9" ry="6.5" fill="#fff"/><ellipse cx="119" cy="96" rx="9" ry="6.5" fill="#fff"/>
      <circle cx="82" cy="97" r="4.6" fill="url(#iris)"/><circle cx="118" cy="97" r="4.6" fill="url(#iris)"/>
      <circle cx="82" cy="97" r="2" fill="#1a1008"/><circle cx="118" cy="97" r="2" fill="#1a1008"/>
      <circle cx="83.6" cy="95" r="1.3" fill="#fff"/><circle cx="119.6" cy="95" r="1.3" fill="#fff"/>
      <path d="M72 92 q9 -6 18 0" stroke="#7a5636" stroke-width="1.5" fill="none" stroke-linecap="round"/>
      <path d="M110 92 q9 -6 18 0" stroke="#7a5636" stroke-width="1.5" fill="none" stroke-linecap="round"/>
    </g>
    <path d="M100 100 q-5 12 -3 16 q3 3 6 0" fill="none" stroke="#c98f63" stroke-width="2.4" stroke-linecap="round"/>
    <ellipse cx="95" cy="118" rx="1.4" ry="1" fill="#b07a4e"/><ellipse cx="105" cy="118" rx="1.4" ry="1" fill="#b07a4e"/>
    <path d="M86 128 q14 6 28 0 q-14 12 -28 0 Z" fill="#c0392b"/>
    <path d="M86 128 q14 5 28 0" stroke="#7d2317" stroke-width="1.2" fill="none"/>
  </g>
</svg>
