<svg xmlns="http://www.w3.org/2000/svg" viewBox="0 0 200 200" width="200" height="200">
  <defs>
    <radialGradient id="bg" cx="0.5" cy="0.35" r="0.75"><stop offset="0" stop-color="#ffab86"/><stop offset="1" stop-color="#c85a3c"/></radialGradient>
    <radialGradient id="skin" cx="0.44" cy="0.4" r="0.7"><stop offset="0" stop-color="#d9a06e"/><stop offset="0.7" stop-color="#c2854f"/><stop offset="1" stop-color="#a06a3a"/></radialGradient>
    <linearGradient id="hair" x1="0" y1="0" x2="0" y2="1"><stop offset="0" stop-color="#2a1a0e"/><stop offset="1" stop-color="#120a04"/></linearGradient>
    <linearGradient id="top" x1="0" y1="0" x2="0" y2="1"><stop offset="0" stop-color="#8a3a24"/><stop offset="1" stop-color="#5f2616"/></linearGradient>
    <radialGradient id="iris" cx="0.5" cy="0.5" r="0.5"><stop offset="0" stop-color="#3f2a17"/><stop offset="1" stop-color="#1a0e06"/></radialGradient>
    <clipPath id="c"><rect width="200" height="200"/></clipPath>
  </defs>
  <g clip-path="url(#c)">
    <rect width="200" height="200" fill="url(#bg)"/>
    <path d="M36 200 C36 156 66 138 100 138 C134 138 164 156 164 200 Z" fill="url(#top)"/>
    <path d="M100 140 c-14 0 -20 -4 -20 -4 l0 -18 h40 l0 18 s-6 4 -20 4 Z" fill="#b2794a"/>
    <ellipse cx="58" cy="94" rx="7" ry="12" fill="url(#skin)"/><ellipse cx="142" cy="94" rx="7" ry="12" fill="url(#skin)"/>
    <ellipse cx="100" cy="90" rx="42" ry="49" fill="url(#skin)"/>
    <path d="M98 118 C120 118 132 110 134 104 C134 134 118 148 100 148 C82 148 66 134 66 104 C68 110 80 118 98 118 Z" fill="#231407" opacity="0.85"/>
    <path d="M58 76 C56 34 144 34 142 76 C144 50 128 38 100 38 C72 38 56 50 58 76 Z" fill="url(#hair)"/>
    <path d="M78 30 C86 24 114 24 122 30 C114 27 86 27 78 30 Z" fill="url(#hair)"/>
    <path d="M70 82 q10 -6 21 -1" stroke="#1a0e06" stroke-width="3.4" fill="none" stroke-linecap="round"/>
    <path d="M109 81 q11 -5 21 1" stroke="#1a0e06" stroke-width="3.4" fill="none" stroke-linecap="round"/>
    <g>
      <ellipse cx="81" cy="94" rx="9" ry="6.2" fill="#fff"/><ellipse cx="119" cy="94" rx="9" ry="6.2" fill="#fff"/>
      <circle cx="82" cy="95" r="4.5" fill="url(#iris)"/><circle cx="118" cy="95" r="4.5" fill="url(#iris)"/>
      <circle cx="82" cy="95" r="2" fill="#0e0703"/><circle cx="118" cy="95" r="2" fill="#0e0703"/>
      <circle cx="83.6" cy="93" r="1.3" fill="#fff"/><circle cx="119.6" cy="93" r="1.3" fill="#fff"/>
      <path d="M72 90 q9 -5 18 0" stroke="#2a1a0e" stroke-width="1.6" fill="none" stroke-linecap="round"/>
      <path d="M110 90 q9 -5 18 0" stroke="#2a1a0e" stroke-width="1.6" fill="none" stroke-linecap="round"/>
    </g>
    <path d="M100 98 q-6 12 -3 16 q3 3 6 0" fill="none" stroke="#96612f" stroke-width="2.6" stroke-linecap="round"/>
    <ellipse cx="95" cy="116" rx="1.5" ry="1" fill="#7d5026"/><ellipse cx="105" cy="116" rx="1.5" ry="1" fill="#7d5026"/>
    <path d="M84 126 q16 6 32 0" stroke="#6b3a1e" stroke-width="2.6" fill="none" stroke-linecap="round"/>
  </g>
</svg>
